<svg xmlns="http://www.w3.org/2000/svg" width="74" height="74" viewBox="0 0 74 74">
  <g id="Grupo_992" data-name="Grupo 992" transform="translate(-76 -1099)">
    <rect id="Retângulo_199" data-name="Retângulo 199" width="74" height="74" transform="translate(76 1099)" fill="#333"/>
    <g id="left-and-right-arrows" transform="translate(223.631 1152.602) rotate(180)">
      <g id="Grupo_989" data-name="Grupo 989" transform="translate(101.478)">
        <path id="Caminho_2098" data-name="Caminho 2098" d="M120.111,15.029,105.6.521a1.787,1.787,0,0,0-2.522,0l-1.068,1.068a1.786,1.786,0,0,0,0,2.522L114.2,16.294,102,28.49a1.788,1.788,0,0,0,0,2.522l1.068,1.068a1.787,1.787,0,0,0,2.522,0L120.111,17.56a1.8,1.8,0,0,0,0-2.531Z" transform="translate(-101.478)" fill="#fff"/>
      </g>
    </g>
  </g>
</svg>
