<svg xmlns="http://www.w3.org/2000/svg" width="124.64" height="30.841" viewBox="0 0 124.64 30.841">
  <g id="Grupo_1125" data-name="Grupo 1125" transform="translate(-153.36 -20.52)">
    <path id="Caminho_2111" data-name="Caminho 2111" d="M3.36,1.849H24.786V-4.114H9.92V-27.969H3.36Zm39.147.511c9.2,0,15.889-6.943,15.889-15.42v-.085c0-8.477-6.6-15.335-15.8-15.335S26.7-21.537,26.7-13.06v.085C26.7-4.5,33.306,2.361,42.507,2.361Zm36.08,0A19.354,19.354,0,0,0,91.324-2.368v-12.95H78.374v5.665h6.6v4.26A10.467,10.467,0,0,1,78.8-3.6c-5.282,0-9.031-4-9.031-9.457v-.085c0-5.069,3.791-9.286,8.562-9.286a10.98,10.98,0,0,1,7.8,3.024l4.132-4.984c-3.11-2.641-6.347-4.089-11.714-4.089A15.3,15.3,0,0,0,62.911-13.06v.085C62.911-4.157,69.3,2.361,78.587,2.361Zm33.524,0c9.2,0,15.889-6.943,15.889-15.42v-.085c0-8.477-6.6-15.335-15.8-15.335S96.308-21.537,96.308-13.06v.085C96.308-4.5,102.91,2.361,112.111,2.361Z" transform="translate(150 49)" fill="#fff"/>
    <ellipse id="Elipse_1" data-name="Elipse 1" cx="4.5" cy="4" rx="4.5" ry="4" transform="translate(191 35)"/>
    <circle id="Elipse_2" data-name="Elipse 2" cx="4" cy="4" r="4" transform="translate(261 35)"/>
  </g>
</svg>
