<svg id="menu" xmlns="http://www.w3.org/2000/svg" width="29.037" height="23.191" viewBox="0 0 29.037 23.191">
  <g id="Menu_1_">
    <path id="Caminho_884" data-name="Caminho 884" d="M.907,99.142H28.13c.5,0,.907-.649.907-1.449s-.407-1.449-.907-1.449H.907c-.5,0-.907.649-.907,1.449S.407,99.142.907,99.142Z" transform="translate(0 -96.243)" fill="#fff"/>
    <path id="Caminho_885" data-name="Caminho 885" d="M28.13,180.455H.907c-.5,0-.907.649-.907,1.449s.407,1.449.907,1.449H28.13c.5,0,.907-.649.907-1.449S28.631,180.455,28.13,180.455Z" transform="translate(0 -170.309)" fill="#fff"/>
    <path id="Caminho_886" data-name="Caminho 886" d="M140.664,264.667H121.273c-.535,0-.97.649-.97,1.449s.434,1.449.97,1.449h19.391c.535,0,.97-.649.97-1.449S141.2,264.667,140.664,264.667Z" transform="translate(-112.596 -244.375)" fill="#fff"/>
  </g>
</svg>
