<svg xmlns="http://www.w3.org/2000/svg" width="67" height="42.702" viewBox="0 0 67 42.702">
  <path id="Subtração_7" data-name="Subtração 7" d="M377.133,129.7a6.246,6.246,0,0,1-5.043-2.584,6.218,6.218,0,0,1-11.152-2.46h-2.716a2.443,2.443,0,0,1-2.441-2.44v-2.6H354.44a2.443,2.443,0,0,1-2.44-2.441V89.44A2.443,2.443,0,0,1,354.44,87h58a2.443,2.443,0,0,1,2.44,2.44v5.124H415v2.36h-.044a.081.081,0,0,0-.081.081v20.254h3.864c.086,0,.174,0,.262.006v2.363c-.08-.005-.165-.009-.254-.009h-.032a3.906,3.906,0,0,0-.432.027l-4.446.01.029-.037h-3.952a1.179,1.179,0,0,1,0-2.359h2.6V89.44a.082.082,0,0,0-.082-.081H354.44a.082.082,0,0,0-.081.081v27.736a.082.082,0,0,0,.081.082h50.43a1.179,1.179,0,1,1,0,2.359H382.007a6.231,6.231,0,0,1,1.236,2.683h29.386l0,2.366,0-.007H383.243A6.23,6.23,0,0,1,377.133,129.7Zm-.023-10.085a3.863,3.863,0,1,0,.048,0Zm-10.086,0a3.864,3.864,0,1,0,.049,0Zm-8.882,0h0v2.6a.081.081,0,0,0,.081.081h2.716a6.231,6.231,0,0,1,1.236-2.683h-4.033Zm19.005,5.042a1.179,1.179,0,1,1-.013-2.359h.013a1.179,1.179,0,0,1,0,2.359Zm-10.086,0a1.179,1.179,0,0,1-.014-2.359h.014a1.179,1.179,0,0,1,0,2.359Zm41.592-10.085h-50.43a1.179,1.179,0,1,1,0-2.359h50.43a1.179,1.179,0,0,1,0,2.359Z" transform="translate(-352 -87)"/>
</svg>
