<svg xmlns="http://www.w3.org/2000/svg" width="53" height="53" viewBox="0 0 53 53">
  <g id="maps-and-location" transform="translate(-1 -1)">
    <path id="Caminho_2025" data-name="Caminho 2025" d="M12.419,11.839A3.419,3.419,0,1,0,9,8.419,3.423,3.423,0,0,0,12.419,11.839Zm0-5.129a1.71,1.71,0,1,1-1.71,1.71A1.711,1.711,0,0,1,12.419,6.71Z" transform="translate(-1.161 -0.581)"/>
    <path id="Caminho_2026" data-name="Caminho 2026" d="M54,32.082V26.43L47.687,14.673a5.226,5.226,0,0,0-4.892-3.415H25.416A2.562,2.562,0,0,0,22.927,13.2l-.165.659-1.851-1.851a2.552,2.552,0,0,0-1.814-.751H17.374A8.619,8.619,0,0,0,18.1,7.839a6.839,6.839,0,1,0-13.677,0,8.619,8.619,0,0,0,.722,3.419H3.565A2.568,2.568,0,0,0,1,13.823V25.937a2.546,2.546,0,0,0,.751,1.813L3.211,29.21,1.751,30.669A2.546,2.546,0,0,0,1,32.482v14.3a2.561,2.561,0,0,0,1.753,2.433l13.954,4.651A2.543,2.543,0,0,0,17.52,54H51.435A2.568,2.568,0,0,0,54,51.435V39.321a2.546,2.546,0,0,0-.751-1.813L50.6,34.864l1.334-.268A2.57,2.57,0,0,0,54,32.082Zm-6.316-13.8,3.434,6.4-6.455-3.228.819-.491A5.246,5.246,0,0,0,47.684,18.28ZM11.258,2.71a5.134,5.134,0,0,1,5.129,5.129,6.9,6.9,0,0,1-.643,2.9L11.258,20.35,6.772,10.737a6.9,6.9,0,0,1-.643-2.9A5.134,5.134,0,0,1,11.258,2.71Zm0,40.133a2.484,2.484,0,0,1-1.883,2.412l-.356.089L6.332,41.986,6.7,41.43a2.486,2.486,0,0,1,4.555,1.413ZM9.789,46.913a4.178,4.178,0,0,0,2.662-2.06l3.181,6.855L4.908,48.133Zm37.348-13.1,4.9,4.9a.863.863,0,0,1,.25.6V51.435a.856.856,0,0,1-.855.855H17.787L12.678,41.279l-.008,0a4.187,4.187,0,0,0-7.389-.8l-1.065,1.6L7.193,45.8,2.73,46.916a.844.844,0,0,1-.021-.132v-14.3a.861.861,0,0,1,.25-.6L5.628,29.21,2.96,26.542a.863.863,0,0,1-.25-.6V13.823a.856.856,0,0,1,.855-.855H5.926l5.332,11.424L16.59,12.968H19.1a.851.851,0,0,1,.605.25L23.689,17.2l.9-3.589a.855.855,0,0,1,.83-.648H42.8A3.511,3.511,0,0,1,44.6,19.49l-3.489,2.094,11.179,5.59v4.908a.855.855,0,0,1-.687.838Z"/>
    <path id="Caminho_2027" data-name="Caminho 2027" d="M42.586,46.645h-.941a2.568,2.568,0,0,1-2.565-2.565V26.129a5.129,5.129,0,1,0-10.258,0V40.661a2.565,2.565,0,1,1-5.129,0V28.694a4.279,4.279,0,0,0-4.274-4.274H16v1.71h3.419a2.568,2.568,0,0,1,2.565,2.565V40.661a4.274,4.274,0,0,0,8.548,0V26.129a3.419,3.419,0,1,1,6.839,0V44.081a4.279,4.279,0,0,0,4.274,4.274h.941a4.274,4.274,0,1,0,0-1.71Zm6.752.855a2.565,2.565,0,1,1-2.565-2.565A2.568,2.568,0,0,1,49.339,47.5Z" transform="translate(-2.177 -2.903)"/>
  </g>
</svg>
