<svg id="truck" xmlns="http://www.w3.org/2000/svg" width="80.525" height="42.702" viewBox="0 0 80.525 42.702">
  <g id="Grupo_899" data-name="Grupo 899" transform="translate(13.875 35.3)">
    <g id="Grupo_898" data-name="Grupo 898" transform="translate(0 0)">
      <path id="Caminho_2012" data-name="Caminho 2012" d="M89.4,344.692h-.013a1.186,1.186,0,1,0,.013,0Z" transform="translate(-88.218 -344.692)"/>
    </g>
  </g>
  <g id="Grupo_901" data-name="Grupo 901" transform="translate(23.961 35.3)">
    <g id="Grupo_900" data-name="Grupo 900" transform="translate(0 0)">
      <path id="Caminho_2013" data-name="Caminho 2013" d="M153.533,344.692h-.013a1.186,1.186,0,1,0,.013,0Z" transform="translate(-152.347 -344.692)"/>
    </g>
  </g>
  <g id="Grupo_903" data-name="Grupo 903" transform="translate(65.565 35.3)">
    <g id="Grupo_902" data-name="Grupo 902" transform="translate(0 0)">
      <path id="Caminho_2014" data-name="Caminho 2014" d="M418.065,344.692h-.013a1.186,1.186,0,1,0,.013,0Z" transform="translate(-416.879 -344.692)"/>
    </g>
  </g>
  <g id="Grupo_905" data-name="Grupo 905" transform="translate(0 0)">
    <g id="Grupo_904" data-name="Grupo 904" transform="translate(0 0)">
      <path id="Caminho_2015" data-name="Caminho 2015" d="M79.441,141.284,77.855,139.7l-3.2-9.585a1.18,1.18,0,0,0-.357-2.3H62.875v-5.124a2.443,2.443,0,0,0-2.44-2.44H2.44A2.443,2.443,0,0,0,0,122.685v27.736a2.443,2.443,0,0,0,2.44,2.44H3.782v2.6a2.443,2.443,0,0,0,2.44,2.44H8.939a6.218,6.218,0,0,0,11.152,2.459A6.218,6.218,0,0,0,31.243,157.9H60.629a6.222,6.222,0,0,0,12.331-1.18c0-.027,0-.054,0-.081h5.126a2.443,2.443,0,0,0,2.44-2.44V143.9A3.676,3.676,0,0,0,79.441,141.284Zm-70.5,14.261H6.222a.081.081,0,0,1-.081-.081v-2.6h4.033A6.2,6.2,0,0,0,8.939,155.545Zm6.109,5.043a3.863,3.863,0,0,1-.024-7.726h.048a3.863,3.863,0,0,1-.024,7.726Zm10.086,0a3.863,3.863,0,0,1-.024-7.726h.048a3.863,3.863,0,0,1-.024,7.726Zm35.5-5.043H31.243a6.2,6.2,0,0,0-1.236-2.683H52.87a1.18,1.18,0,0,0,0-2.359H2.44a.081.081,0,0,1-.081-.081V122.685a.081.081,0,0,1,.081-.081H60.435a.081.081,0,0,1,.081.081V150.5h-2.6a1.18,1.18,0,1,0,0,2.359h3.952A6.2,6.2,0,0,0,60.629,155.545Zm14.978-15.129H68a.081.081,0,0,1-.081-.081v-5.124h5.955Zm-8.87,20.172a3.863,3.863,0,0,1-.024-7.726h.032a3.863,3.863,0,0,1-.008,7.727ZM78.166,154.2a.081.081,0,0,1-.081.081H72.462a6.232,6.232,0,0,0-5.724-3.783H62.875V130.25h0a.081.081,0,0,1,.081-.081h9.236l.895,2.684H66.738a1.18,1.18,0,0,0-1.18,1.18v6.3a2.443,2.443,0,0,0,2.44,2.44h9.6l.177.177a1.334,1.334,0,0,1,.393.949v2.82H76.824a1.18,1.18,0,0,0,0,2.359h1.342Z" transform="translate(0 -120.245)"/>
    </g>
  </g>
  <g id="Grupo_907" data-name="Grupo 907" transform="translate(5.043 25.215)">
    <g id="Grupo_906" data-name="Grupo 906" transform="translate(0 0)">
      <path id="Caminho_2016" data-name="Caminho 2016" d="M83.673,280.567H33.244a1.18,1.18,0,1,0,0,2.359h50.43a1.18,1.18,0,1,0,0-2.359Z" transform="translate(-32.064 -280.567)"/>
    </g>
  </g>
</svg>
